# xmcd
#
# Track frame offsets: 
#        150
#        12618
#        33360
#        49652
#        71829
#        92298
#        110575
#        135957
#        146676
#        158058
#        172606
#        190792
#        211465
#        231567
#        248145
#        263693
#        283733
#        297377
#
# Disc length: 4115 seconds
#
# Revision: 0
# Processed by: cddbd v1.5.2PL0 Copyright (c) Steve Scherf et al.
# Submitted via: ExactAudioCopy v1.0b1
#
DISCID=03101112
DTITLE=Various Artist - Moulin Blues 2011 Promo
DYEAR=1900
DGENRE=
TTITLE0=Tim Lothar And Peter Nande - Can't Get That Stuff No More
TTITLE1=Kenny Neal - Let Life Flow
TTITLE2=The Dave Riley and Bob Corritore - Travelin' The Dirt Road
TTITLE3=Fabulous Thunderbirds - Hold Me
TTITLE4=Janiva Magness - You Were Never Mine
TTITLE5=Kilborn Alley Blues Band - Watch It
TTITLE6=Ian Siegal - One Bourbon, One Scotch, One Beer
TTITLE7=Mike Sanchez - Someday
TTITLE8=Dave Arcari - Got Me Electric
TTITLE9=Los Lonely Boys - Diamonds
TTITLE10=Shawn Pittman and The Moeller Bros - Hell Or High Water
TTITLE11=John Nemeth - She's My Heart Desire
TTITLE12=Hokie Joint - The Way It Goes Sometimes
TTITLE13=Blackberry and Mr. Boo-Hoo - Say Yeah
TTITLE14=Homemade Jamz Blues Band - Roots
TTITLE15=Nick Moss and The Flip Tops - Sadie Mae
TTITLE16=Def Americans - Jackson
TTITLE17=Vibrotones - Peggy Lee
EXTD=
EXTT0=
EXTT1=
EXTT2=
EXTT3=
EXTT4=
EXTT5=
EXTT6=
EXTT7=
EXTT8=
EXTT9=
EXTT10=
EXTT11=
EXTT12=
EXTT13=
EXTT14=
EXTT15=
EXTT16=
EXTT17=
PLAYORDER=
